<svg xmlns="http://www.w3.org/2000/svg" width="200" height="200" fill="none" preserveAspectRatio="none" viewBox="0 0 160.005905 129.999908"><g id="objects"><g><g transform="translate(-27.494001 -229.999969)">
			<path style="fill:#212123;" d="M34.124,259.972c-0.038-0.452-0.085-0.883-0.164-1.276     C33.98,259.955,34.045,260.112,34.124,259.972z" />
			<path style="fill:#212123;" d="M77.028,359.824c0.114,0.049,0.278,0.094,0.391,0.122     C77.32,359.897,77.183,359.858,77.028,359.824z" />
			<path style="fill:#212123;" d="M99.949,356.548c-0.214,0.015-0.427,0.029-0.645,0.044c0.219,0.001,0.466,0.003,0.62,0.004     C99.949,356.579,99.94,356.566,99.949,356.548z" />
			<path style="fill:#212123;" d="M156.422,234.077c0.098,0.054,0.252,0.101,0.462,0.119     C156.825,234.091,156.657,234.065,156.422,234.077z" />
			<path style="fill:#212123;" d="M59.559,232.895l-0.092-0.016c-0.081,0.016-0.181,0.024-0.233,0.044L59.559,232.895z" />
			<path style="fill:#212123;" d="M184.638,338.742c0.013,0.016,0.028,0.032,0.045,0.061     C184.665,338.761,184.651,338.762,184.638,338.742z" />
			<path style="fill:#212123;" d="M184.593,338.736c0.014-0.001,0.028-0.009,0.045,0.006     C184.621,338.734,184.605,338.714,184.593,338.736z" />
			<path style="fill:#212123;" d="M184.682,338.803c0.057,0.115,0.119,0.28,0.2,0.553     C184.796,339.055,184.734,338.896,184.682,338.803z" />
			<path style="fill:#212123;" d="M182.385,267.813c0.008,0.034,0.017,0.055,0.03,0.048     C182.41,267.806,182.399,267.799,182.385,267.813z" />
			<path style="fill:#212123;" d="M146.482,235.085l-1.608,0.139C145.193,235.197,147.384,235.473,146.482,235.085z" />
			<path style="fill:#212123;" d="M158.912,233.752c0.018,0.028,0.061,0.061,0.164,0.102     C159.031,233.821,158.971,233.786,158.912,233.752z" />
			<path style="fill:#212123;" d="M160.007,233.388c-1.703,0.016-1.402,0.187-1.095,0.364     C158.735,233.478,162.068,233.773,160.007,233.388z" />
			<path style="fill:#212123;" d="M181.613,248.671l0.063-0.786c0.169,0.814,0.155,0.431,0.023-0.295     c0.022-0.835-0.11-0.794-0.195-0.898c-0.045-0.169-0.09-0.338-0.138-0.521c0.045,0.259,0.085,0.493,0.12,0.691     C181.426,248.156,181.412,248.946,181.613,248.671z" />
			<polygon style="fill:#212123;" points="186.256,234.987 186.239,233.967 186.099,233.393 184.789,233.618 186.028,233.46    " />
			<path style="fill:#212123;" d="M183.602,280.04c-0.017,0.283-0.036,0.61-0.061,1.016     C183.553,280.689,183.574,280.352,183.602,280.04z" />
			<polygon style="fill:#212123;" points="102.918,357.234 104.868,356.991 102.717,357.184    " />
			<polygon style="fill:#212123;" points="87.253,356.93 87.46,356.984 89.4,356.743 89.195,356.69    " />
			<path style="fill:#212123;" d="M76.793,356.752c0.506-0.049,0.908-0.117,1.173-0.223     C77.486,356.603,77.123,356.677,76.793,356.752z" />
			<path style="fill:#212123;" d="M73.274,359.992c1.059,0.026,1.383-0.014,2.031-0.095     C75.125,359.608,74.129,359.966,73.274,359.992z" />
			<path style="fill:#212123;" d="M171.512,231.002l-2.001,0.728l-3.384-0.1c-0.033,0.237-2.492,0.483-0.82,0.652     c0.325-0.044,0.968-0.129,1.489-0.119c-0.366,0.518-4.49,0.356-3.485,0.849c2.671-0.195,3.084-0.093,4.72-0.544     c1.226-0.004,2.286,0.013,3.183,0.052c0.453,0.027,0.865,0.051,1.237,0.073c0.465,0.027,0.873,0.06,1.225,0.099     c0.917-0.098,1.117-0.415,2.354-0.505c-0.27,0.012-0.518,0.024-0.829,0.038l0.067-0.768c-0.565,0.094-1.09,0.127-1.629,0.142     c-0.501,0.01-1.016,0.02-1.572,0.032c0.265-0.081,0.83-0.168,1.281-0.253l1.46-0.257l3.101-0.518     c-0.797-0.341-2.839-0.369-4.933-0.343c-0.744,0.009-1.497,0.019-2.173,0.027c-0.603,0-1.138-0.017-1.528-0.083     C171.215,230.806,167.746,230.56,171.512,231.002z" />
			<path style="fill:#212123;" d="M72.78,355.451l-0.86,0.233c-0.044-0.036-0.026-0.063-0.026-0.081     c0.263-0.045,0.544-0.099,0.86-0.153C72.771,355.451,72.771,355.451,72.78,355.451z" />
			<path style="fill:#212123;" d="M46.146,357.76l4.232-0.357c-0.568,0.202,1.471,0.185,0.575,0.416     c0.323-0.027,1.833-0.077,1.424-0.197l-0.862-0.007c2.239-0.578,0.899-0.844,4.595-1.246c-2.28-0.419-3.292-0.104-4.511,0.154     c-0.412,0.034-0.758,0.045-1.106,0.061l-3.53,0.796L46.146,357.76z" />
			<path style="fill:#212123;" d="M183.68,318.778l0.048,0.047C183.711,318.782,183.695,318.775,183.68,318.778z" />
			<path style="fill:#212123;" d="M183.926,319.014l-0.197-0.188C183.827,319.057,183.925,319.944,183.926,319.014z" />
			<path style="fill:#212123;" d="M144.314,231.716c0.194,0.016,0.416,0.034,0.592,0.048     C144.776,231.732,144.552,231.722,144.314,231.716z" />
			<path style="fill:#212123;" d="M32.671,301.719l0.012-1.149C32.665,301.019,32.666,301.386,32.671,301.719z" />
			<path style="fill:#212123;" d="M29.695,276l-0.219-1.671C29.505,274.991,29.588,275.507,29.695,276z" />
			<path style="fill:#212123;" d="M130.881,231.968l-0.055-0.004c-0.092,0.016-0.162,0.029-0.259,0.046L130.881,231.968z" />
			<path style="fill:#212123;" d="M47.669,232.878c0.252,0.059,0.535,0.111,0.921,0.147     C48.542,232.95,48.198,232.904,47.669,232.878z" />
			<path style="fill:#212123;" d="M29.736,276.308c0.005-0.043,0.007-0.068,0.011-0.102c-0.016-0.065-0.034-0.136-0.052-0.206     L29.736,276.308z" />
			<path style="fill:#212123;" d="M30.545,313.063c0.024,0.246,0.045,0.468,0.071,0.732     C30.603,313.45,30.576,313.238,30.545,313.063z" />
			<path style="fill:#212123;" d="M32.661,311.45c0.018,0.264,0.04,0.517,0.071,0.713L32.661,311.45z" />
			<path style="fill:#212123;" d="M30.418,355.703l2.687-0.007C31.827,355.66,31.03,355.672,30.418,355.703z" />
			<path style="fill:#212123;" d="M32.157,315.534c0.034,0.09,0.066,0.18,0.1,0.24C32.235,315.561,32.192,315.459,32.157,315.534z" />
			<path style="fill:#212123;" d="M157.664,232.575c0.434-0.03,0.886-0.062,1.331-0.093     C158.5,232.488,158.018,232.523,157.664,232.575z" />
			<path style="fill:#212123;" d="M161.219,231.885c0.176-0.568,3.12-0.332,4.417-0.501c-0.947-0.111,0.461-0.373,0.171-0.569     c-0.643,0.083-1.405,0.263-2.471,0.247c-0.495-0.247,1.117-0.459,2.381-0.391c-1.561-0.263,1.963-0.492-0.242-0.671     c-4.7,0.306-8.019,0.586-11.309,1.485c2.678-0.196,5.674-0.433,7.878-0.255l-0.914,0.51c-2.495-0.373-4.022-0.018-6.468-0.008     l5.497,0.135c2.581,0.348,0.862,0.481-1.164,0.615c0.499-0.005,0.951,0.014,1.079,0.098     C160.309,232.393,166.094,231.867,161.219,231.885z" />
			<path style="fill:#212123;" d="M153.143,234.657l-0.004,0C153.097,234.663,153.106,234.663,153.143,234.657z" />
			<path style="fill:#212123;" d="M30.116,335.607c0.018,0.254,0.044,0.133,0.067-0.077     C30.161,335.552,30.14,335.557,30.116,335.607z" />
			<path style="fill:#212123;" d="M65.685,231.52c0.407,0.003,0.847-0.008,1.328-0.056C66.455,231.47,66.037,231.491,65.685,231.52z     " />
			<polygon style="fill:#212123;" points="32.007,281.987 32.007,281.982 32.006,281.982    " />
			<path style="fill:#212123;" d="M31.51,275.87c0.029-2.701-0.346-3.715-0.572-4.824c0.094,0.124,0.141-0.087,0.236-0.508     c-0.174-2.399-0.727-3.646-1.013-2.396l0.183,0.79l-0.382,1.677c0.868,0.604,0.535,5.519,0.975,8.195     c-0.423-1.836-1.238-3.399-0.798-5.795l-0.422,0.27c-0.128-2.062,0.252-3.748-0.207-4.878l0.175,2.4l-0.233-0.034     c0.086,1.702,0.515,3.86,0.297,5.439c0.324,1.373,0.814,2.659,0.812,6.356l-0.094-0.12c0.847,2.484-0.34,6.987,0.05,8.87     c0.82,1.078,0.249-4.068,0.549-5.327c0.348,1.552-0.051,3.23,0.389,1.881c0.452,3.632-0.631,2.188-0.041,5.182l0.174-1.707     c0.395,1.343,0.2,3.594,0.589,4.949c0.553,0.18-0.039-2.285,0.106-4.865l0.443,1.146l-0.565-5.155     c-0.722-1.505-0.696-0.091-1.251-3.295c0.274-1.146,0.688-1.957,1.099-2.139c-0.454-1.142-0.703-4.188-0.763-7.544L31.51,275.87z     " />
			<path style="fill:#212123;" d="M157.865,234.116c0.115-0.082,0.059-0.202,0.603-0.253l-2.065,0.132L157.865,234.116z" />
			<path style="fill:#212123;" d="M116.518,230.736c-0.181-0.288-1.386,0.026-2.034,0.112     C115.013,230.855,115.754,230.915,116.518,230.736z" />
			<path style="fill:#212123;" d="M186.469,297.751c0.027,1.004,0.055,2.034,0.084,3.121L186.469,297.751z" />
			<path style="fill:#212123;" d="M186.705,306.545c0.026,0.971,0.053,1.995,0.083,3.098L186.705,306.545z" />
			<polygon style="fill:#212123;" points="51.029,232.161 49.029,232.032 50.591,232.295    " />
			<polygon style="fill:#212123;" points="33.269,232.719 36.442,232.436 36.088,232.39 32.896,232.673    " />
			<path style="fill:#212123;" d="M34.874,239.073c0.012,0.252,0.041,0.532,0.1,0.82C34.934,239.57,34.901,239.299,34.874,239.073z" />
			<path style="fill:#212123;" d="M35.406,248.622l-0.005-0.79c0.238,0.796,0.192,0.416-0.003-0.296     c-0.05-0.835-0.179-0.782-0.272-0.877c-0.059-0.164-0.118-0.328-0.183-0.506c0.067,0.254,0.128,0.484,0.179,0.678     C35.175,248.126,35.229,248.914,35.406,248.622z" />
			<path style="fill:#212123;" d="M30.143,282.296c0.027-2.757-0.513-2.315-0.686-3.972c0.145,3.114,0.023,3.755,0.215,7.478     C29.763,282.899,29.82,282.147,30.143,282.296z" />
			<path style="fill:#212123;" d="M29.456,278.324c-0.018-0.349-0.035-0.682-0.055-1.087     C29.404,277.69,29.426,278.026,29.456,278.324z" />
			<path style="fill:#212123;" d="M29.602,290.108c0.009-0.538-0.024-1.399,0.077-1.825     C29.354,288.136,29.594,290.645,29.602,290.108z" />
			<path style="fill:#212123;" d="M31.057,298.403c0.013-0.538,0.216-1.368,0.487-1.014     C31.375,296.61,30.795,295.561,31.057,298.403z" />
			<path style="fill:#212123;" d="M29.727,330.049l-0.177-1.433l-0.129,1.779C29.525,329.888,29.912,330.824,29.727,330.049z" />
			<path style="fill:#212123;" d="M29.421,330.395c-0.017,0.075-0.026,0.185-0.024,0.344L29.421,330.395z" />
			<polygon style="fill:#212123;" points="30.119,340.11 30.16,337.767 30.051,340.32    " />
			<polygon style="fill:#212123;" points="29.707,357.093 30.382,357.229 34.245,357.167 33.54,357.03    " />
			<path style="fill:#212123;" d="M123.505,356.899l0.591-0.054C123.846,356.855,123.663,356.875,123.505,356.899z" />
			<path style="fill:#212123;" d="M185.689,354.616l-0.088-0.323c-0.018,0.117-0.009,0.251-0.053,0.35l-0.474-0.045     c-0.044-0.009-0.079-0.009-0.123-0.009c-0.158-1.634-0.307-3.412-0.456-5.154c-0.061-0.664-0.114-1.329-0.176-1.994     c0.009-1.167,0.009-2.299-0.044-3.709c-0.009-0.35-0.018-0.718-0.035-1.113c-0.009-0.251-0.018-0.512-0.026-0.79     c-0.018-0.413-0.061-0.871-0.105-1.356c0-0.063,0.009-0.117,0.009-0.18c0.044,0.296,0.079,0.638,0.105,1.042     c0.044,0.673,0.088,1.437,0.14,2.263c0.176,2.191,0.413,4.571,0.799,6.843c0.237-2.371-0.711-5.864-0.773-8.046     c0.07,0.26,0.158,0.889,0.228,1.185c0.079,0.314,0.149,0.494,0.202,0.521c0.053,0.027,0.088-0.108,0.105-0.422     c0.009-0.162,0.018-0.377,0.035-0.638c0-0.126,0.009-0.26,0.009-0.413c0.009-0.09,0.018-0.189,0.026-0.287l-0.342-0.664     c-0.053-1.006-0.202-2.793-0.061-2.936c-0.114-0.045-0.167,0.404-0.211,1.32c-0.088-0.386-0.176-0.826-0.255-1.302     c0-0.799-0.009-1.598,0-2.407c0.018,0.386,0.035,0.763,0.061,1.14c0.404-0.808-0.07-0.853-0.018-2.667l0.518,1.976     c0-0.835-0.149-1.563-0.307-2.012c0.035-0.79,0.026-1.751,0-2.793c0.026-0.144,0.053-0.332,0.079-0.566     c-0.026-0.251-0.061-0.485-0.097-0.727c-0.026-1.015-0.035-2.083,0.009-3.125l0.395-0.602c-0.123-1.868-0.184-5.352-0.184-8.199     c-0.228-0.027-0.176,2.595-0.465,1.356c0,1.419,0.053,2.613,0.298,2.11c0,0.359-0.018,0.629-0.061,0.853l-0.746-3.969     c0.018-0.233,0.044-0.332,0.07-0.35l-0.079-0.072c0.061-1.841,0.07-3.861-0.061-5.612c0.026,0.557,0.026,1.203,0,1.958     c-0.36-1.374-0.342-2.649-0.246-3.987c0.123,0.656,0.202,1.383,0.237,2.424v-0.521l-0.018-2.712     c0.421,1.688,0.342,8.1,0.983,6.995c-0.211-3.161-0.518-7.435-0.904-10.866l0.14,1.006c0.176-2.9-0.061-5.208-0.263-7.525     l0.456,0.072c-0.369-0.18-0.544-1.958-0.658-3.628c0-0.144,0-0.296,0.009-0.44c0.079-0.332,0.176-0.979,0.307-0.979     c0.044,0.35,0.088,0.62,0.149,0.799l0.009,0.242v-0.216c0.053,0.171,0.123,0.251,0.211,0.207c0.14-1.823,0.018-4.014-0.211-4.921     l-0.088,0.727c-0.07-1.625-0.184-3.251-0.325-4.804c0.105-0.395,0.211-1.212,0.307-2.811c0.14,0.799,0.07,2.739,0.421,2.371     l-0.219,3.763l0.456,0.081c0.132-4.265-0.298-6.959-0.887-9.061c0.018-1.634-0.044-2.236-0.132-2.398     c0.184-0.26,0.404-0.638,0.325,1.167c0.193-2.137,0.702-3.179,0.852-2.954c-0.325-2.245-1.018,3.52-1.238-0.341     c-0.149,1.383-0.176,1.967-0.132,2.164c-0.184,0.216-0.413,0.629-0.571-0.781c0.799-2.496,1.15-9.222,2.081-7.346     c0.413-2.649,0.061-10.893,0.237-16.667l0.246,1.58c1.211-5.99-0.562-5.352-0.693-8.881c0.123,1.554,0.272,0.871,0.439-0.35     c0.035-0.332,0.079-0.691,0.123-1.069c0.061-0.521,0.114-1.06,0.167-1.563c0.105-1.024,0.211-1.958,0.316-2.46     c-0.105-2.487-0.307-4.58-0.386-6.968c-0.878,0.045-1.764,0.072-2.695,0.09c-0.018-0.458-0.026-0.862-0.035-1.14     c0.088,0.09,0.211-0.108,0.307,0.907c-0.061-0.988-0.123-1.751-0.184-2.353c-0.044-0.314-0.079-0.593-0.105-0.826l-0.009-0.09     c-0.035,0-0.061,0.009-0.097,0.009c-0.061,0.009-0.114,0.009-0.176,0.018c-0.114,0.018-0.219,0.027-0.316,0.036     c-0.79,0.108-1.115,0.242-1.405,0.386c-0.562,0.278-1.001,0.584-4.17,0.745c0.404-0.027,0.887-0.027,1.536,0.009     c1.571-0.081,2.677,0.171,2.01,0.314c0.764-0.045,1.633-0.386,1.457,0.296c0.044,0.44,0.079,0.736,0.105,0.961     c0.061,0.431,0.132,0.494,0.448,0.449c0.018,0.09,0.044,0.18,0.061,0.278c-0.799,0.009-1.615,0-2.493-0.027     c-0.913-0.485-0.781-1.248-4.714-1.383c-0.105,0.018-0.246,0.036-0.316,0.045l-0.211,0.045l-0.413,0.099l-0.825,0.189     c-2.44-0.108-5.688,0.171-7.242-0.162l0.334-0.027c-2.721-0.305-2.844,0.395-0.729,0.53l-2.598,0.225l-0.079-0.153     c-3.45,0.215-6.654,0.88-12.097,0.88c0.334-0.099,0.29-0.207,0.097-0.314c0.465-0.063,0.931-0.108,1.431-0.126     c0.149,0.045,0.272,0.081,0.325,0.126c0.395,0.027,0.781,0.027,1.159,0.009l-0.255,0.207c0.149-0.018,0.887-0.135,1.299-0.296     c0.843-0.108,1.536-0.26,1.975-0.278c-0.202-0.099-0.255-0.233-0.219-0.386c0.852-0.099,1.94-0.171,1.668-0.422     c0,0.18-0.869,0.216-1.589,0.251c0.097-0.144,0.263-0.287,0.492-0.422c0.878,0.036,1.756,0.072,2.616-0.198l-2.081-0.269     c0.035-0.009,0.097-0.018,0.176-0.036c-0.86,0.063-1.58,0.135-1.782,0.242c-3.116,0.332-4.74-0.314-5.25-0.557     c-1.466-0.117,0.518-0.611,0.334-0.898c-2.353,0.153-2.203,0.673-4.556,0.826c-0.615-0.045-0.404-0.144-0.132-0.207l-1.563,0.278     c-0.097-0.144-4.126-0.162-1.747-0.557c0.36,0,1.018-0.009,1.527-0.009c-3.292-0.269-8.98-0.521-8.814-1.06     c-1.8-0.072-1.29,0.171-4.152,0.081c-1.106,0.341-0.272,0.647-1.835,0.934l-0.597-0.054l-0.887,0.233l0.492-0.009l2.3,0.117     c0.509-0.081,0.931-0.18,1.475-0.251l-1.677,0.063l-0.413-0.036c1.08-0.189,0.904-0.377,1.326-0.709     c3.933-0.126,5.03,0.512,7.032,0.638c-1.22,0.314-3.327,0.278-2.528,0.718c-1.984-0.359-2.177,0.44-4.477,0.117l0.439-0.135     c-1.844,0.404-2.116-0.027-3.634,0.323c0.114-0.09-0.097-0.144-0.29-0.198c-3.336,0.287,1.01,0.26-2.318,0.781     c-0.158,0-0.298-0.009-0.43-0.009l-1.027-0.153l0.983-0.09l-1.22-0.198c0.053-0.198,0.263-0.395-0.114-0.485     c0.413-0.063,0.755-0.117,1.045-0.171c0.316,0.027,0.483,0.108,0.219,0.153c1.132-0.135,0.852-0.198,0.281-0.251     c0.632-0.144,0.834-0.251,0.895-0.341h0.386c-0.132-0.009-0.246-0.018-0.369-0.027c0.097-0.225-0.378-0.386,2.8-0.754     c-0.035-0.62-2.151-0.656-5.021-0.512c1.685,0.198-0.588,0.79,0.729,1.176c-1.8-0.027-3.055,0.18-4.337-0.027     c0.922-0.027,1.879-0.036,2.721-0.018c0.597-0.467-2.291-0.323-3.968-0.494c-3.143,0.566-6.435-0.251-8.849,0.377     c-0.132,0.009-0.237,0.009-0.351,0.009c-0.676-0.036-1.194-0.117-0.615-0.323c0.29-0.081,0.562-0.153,0.492-0.171     c-1.712-0.081-1.923,0.063-1.94,0.215c-1.247-0.027-2.66-0.162-2.985,0.081c0.439-0.117,1.817-0.081,2.756,0.072     c-0.737,0.063-1.115,0.189-1.589,0.278c-0.588,0.027-1.097,0.027-1.554,0.009c-0.053-0.054,0.018-0.099,0.018-0.099     c-0.176,0.018-0.316,0.045-0.448,0.072c-1.422-0.09-2.335-0.35-3.757-0.431c-0.009-0.018-0.044-0.036-0.105-0.045     c-0.018,0.009-0.044,0.018-0.079,0.027c-0.316-0.009-0.658-0.018-1.045-0.018c-0.369,0.09-0.816,0.171-1.326,0.233     c-1.369,0.036-2.985,0-3.968-0.162l0.448-0.117c-0.966,0.081-2.397,0.278-3.415-0.018c-0.342,0.242-0.851,0.485-1.352,0.691     c-1.554,0.027-3.099,0.036-4.46,0.054c0.562-0.233-0.061-0.386-0.351-0.584c-0.298,0.099-0.553,0.189-0.773,0.26     c-0.553-0.108-1.194-0.045-1.914,0.18l0.535,0.027c-0.913,0.144-3.827,0.458-2.976,0.673c-0.044,0.009-0.07,0.009-0.105,0.018     l0.377,0.027c0.184,0.027,0.421,0.054,0.755,0.072c-2.397,0.287-3.125-0.431-4.758-0.296c-0.158-0.296,1.343-0.341,0.527-0.584     c-1.589-0.099-2.634-0.162-3.942-0.054c1.264,0.126-0.36,0.269,1.624,0.485c-0.764,0.144-2.792,0.162-2.713,0.305     c0.65-0.054,1.097-0.171,2.23,0.045c-1.896,0.09-3.863,0.063-5.803-0.135c0.465-0.153,0.457-0.305,2.002-0.305l-0.597-0.269     c0.105-0.027,0.132-0.054,0.053-0.081c-0.044,0.018-0.097,0.027-0.14,0.045l-0.518-0.242c0.342,0.278-0.492,0.458-1.29,0.629     c-0.974,0.135-2.081,0.198-3.195,0.242c0.088-0.287-0.132-0.62,1.448-0.745c-1.712-0.018-2.993-0.341-4.819-0.108     c-0.711,0.027-3.248,0.296-5.074,0.566l-0.457,0.036l0.061,0.027c-0.088,0.009-0.176,0.027-0.255,0.045     c0.097-0.018,0.193-0.027,0.29-0.036l0.097,0.027l1.58-0.135c1.115,0.009,2.045,0.18,3.239,0.323     c-1.598-0.027-1.844,0.395-3.213,0.18l0.439-0.135l-1.729,0.305c-0.035-0.063-0.167-0.108-0.342-0.135     c0.123-0.054,0.228-0.117,0.316-0.198c-0.966-0.045-1.738-0.018-2.423,0.045c-0.623-0.036-0.825-0.108,0.316-0.359     c-2.361,0.153-0.808,0.413-2.95,0.62l0.737,0.009c-0.939,0.162-1.861,0.323-3.143,0.323c0.544,0.162,1.729,0.314,2.994,0.404     l0.123,0.413l-3.029-0.377c0.378,0.332-1.949,0.251-2.59,0.332c-1.677-0.171-0.615-1.006-3.441-0.485l0.211,0.054     c-0.211,0.027-0.395,0.054-0.588,0.081c-0.202,0.018-0.307,0.045-0.632,0.063c-0.544,0.045-1.08,0.081-1.642,0.108     c-1.132,0.063-2.397,0.081-4.24,0.054c0.14-0.09,1.115-0.189,1.606-0.233c-2.133-0.054-4.74,0.063-7.155,0.189     c0.149,1.931,0.281,3.772,0.342,5.289c0.053,1.5,0.018,2.667-0.176,3.332c-0.439-0.539-0.298-2.703-0.781-3.035     c0.079-3.26-0.07-4.903-0.29-6.448c0.931-0.144,1.694-0.314,3.037-0.458c1.343-0.135,3.318-0.233,6.514-0.189     c0.193,0.26,0.799,0.341,1.65,0.323c0.413,0,0.948-0.036,1.405-0.072c0.307-0.036,0.641-0.081,0.974-0.126     c1.352-0.189,2.8-0.377,3.38,0.135c-1.159-0.045-2.511,0.108-3.511,0.287c-0.518,0.09-0.843,0.189-1.378,0.278     c-0.43,0.081-0.615,0.144-0.448,0.171c0.65-0.027,1.361-0.054,2.089-0.09c0.606-0.018,1.22-0.036,1.826-0.054     c1.194-0.027,2.318-0.027,3.064,0.009c-1.317-0.314-0.913-0.907,0.035-1.293c-0.799,0.09-1.747,0.126-2.8,0.126     c-0.527,0-1.071-0.009-1.642-0.018c-0.588-0.009-1.203-0.027-1.835-0.045c-4.275-0.036-9.103-0.117-13.536-0.099     c0.026,0.727,0.053,1.41,0.079,2.092c0.202-0.18,0.395-0.332,0.597-0.476c0.43,3.996,0.263,3.637,0.026,3.071     c-0.228-0.584-0.544-1.482-0.404,1.652l0.597,2.847l-0.035,0.359l0.764,4.328c-0.167-2.927-0.562-1.67-0.456-4.903     c0.07-2.829,0.483,0.341,0.878,1.185c-0.026,0.458-0.018,1.221,0,2.056c0.018,0.413,0.026,0.844,0.035,1.257     c0.009,0.207,0.009,0.404,0.018,0.602v0.359c-0.009,0.862-0.061,1.257-0.325-0.009l0.816,4.508     c-0.237-0.018-0.377-1.006-0.518-1.464l0.246,3.278l-0.097-0.117c0.386,2.631,0.535,6.313,1.045,8.315     c0.281-4.508,0.597,2.128,0.922,1.724c0,1.625-1.071,2.155-1.624-1.257c0.325-0.934-0.228-3.269-0.325-5.002     c-0.132,2.245,0.184,2.927,0.281,4.679c-0.325-1.23-0.281,2.335-0.518,2.308c-0.184-0.225-0.746-0.943-0.597-3.197     c-0.097-3.349,0.553-0.368,0.413-1.356c0.562-0.916-0.29-4.67-0.202-6.708c0.044-0.216,0.14,0.44,0.193,0.772     c-0.097-1.751-0.263-5.424-0.685-5.675l0.492,4.355c-0.088,0.961-0.43-1.329-0.606,0.045c0.14,0.988,0.237,2.182,0.202,3.475     l-0.193-0.233c-0.219,2.667,0.053,6.807,0.334,9.851c0.931,0.647,1.528,2.227,2.546,3.529c0.176,4.562,0.263,9.33,0.211,14.179     c0.193-0.081,0.386-0.036,0.562,0.189c-0.202,1.374,0.035,3.897-0.43,3.834c0.483,1.464,0.931,5.639,1.361,4.831     c0.018,0.171,0.035,0.377,0.044,0.557c-0.465,1.769-0.825,4.418-0.86,9.177c0.009,0.934,0.316,1.069,0.755,0.853     c-0.053,0.368-0.088,0.727-0.132,1.087c-0.009-0.476-0.018-0.862-0.061-0.682c-0.044,0.826-0.061,1.58-0.053,2.299     c0,0.063-0.009,0.135-0.009,0.198c-0.211-0.727-0.474-1.203-0.509-2.604l-0.105,7.399l-0.219-0.575l0.316,2.91     c-0.114-1.643-0.018-4.185,0.457-3.565c0.325,2.918-0.035,4.723,0.272,7.031c-0.035,0.287-0.061,0.638-0.097,0.988     c-0.606,0.144-0.764,0.79-1.185-0.036c0.018-0.189,0.026-0.278,0.053-0.332c-0.456-1.051-0.931-3.287-1.036-5.02     c-0.307,6.115,0.009,4.544-0.237,9.905c-0.465,0.467-0.483-4.939-0.816-3.691l0.255-5.038c0.035,0.853,0.14,0.961,0.219,1.374     c-0.325-3.475,0.079-4.741-0.483-7.346c0.211-1.661,0.386,2.568,0.456,0.754c0.097,1.536,0.65,3.044,1.027,3.79     c0.176-3.978-0.623-2.263-0.843-5.639l0.404-2.532c-0.097-1.527-0.255,0.503-0.395,0.593c-0.123-1.859,0.167-2.568,0.149-3.978     c-0.105,0.413-0.219,1.365-0.395,1.131c0.325-2.29,0.07-4.526,0.667-6.663c-0.316,0.862-0.816-1.607-0.939-2.559l-0.597,4.463     c0.307,5.657,0,9.168,0.369,15.266l-0.272-0.359c-0.86,9.573,1.29,7.965,1.159,16.155c-0.65,0.216,0.018,3.789-0.632,3.457     c0.132-2.452-0.158-1.967-0.465-1.275c0.176,1.437,0.623,2.38,0.281,5.119c-0.298-1.024-0.658,1.374-0.693-1.32     c-0.14,1.859-0.202,3.296-0.184,4.508c0,1.203,0.105,2.182,0.334,3.143c0.026,0.754,0.035,1.347,0.026,1.823     c-0.009,0.242-0.018,0.44-0.018,0.629c-0.026,0.233-0.035,0.431-0.053,0.602c-0.097,1.131-0.255,1.5-0.395,1.967     c-0.281,0.853-0.606,1.823-0.957,7.606l-0.105-1.589l-0.281,3.673l-0.14,1.832l-0.07,0.907c0.272,0.045,0.606,0.027,0.904,0.036     l-0.509-0.099c-0.079-0.018-0.176-0.027-0.246-0.054l0.07-0.341L28,355.424l-0.044,1.015l-0.009,0.251v0.126     c0,0.045,0.079,0.018,0.114,0.018h0.544l2.16-0.018l4.231-0.036c2.59-0.09,2.098-0.215,1.132-0.341     c-0.983-0.135-2.449-0.269-2.054-0.395l-1.975,0.413c-0.79-0.054-1.677-0.09-2.59-0.099l-0.685-0.018     c-0.105,0-0.237,0.009-0.334-0.009l0.026-0.323c0.018-0.44,0.044-0.862,0.07-1.266c0.097-1.625,0.202-2.972,0.404-3.412     c-0.193,2.658-0.167,3.574-0.079,4.059c0.018,0.117,0.044,0.215,0.07,0.305c0.026,0.081-0.009,0.216,0.211,0.135     c0.316-0.054,0.676-0.099,1.22-0.126c-0.395-0.009-0.851,0.027-1.22-0.018l0.061-1.176l0.114-2.38l0.518-1.814     c0.219-2.389,0.439-4.481,0.571-6.358c0.044-0.431,0.053-1.024,0.061-1.383c0-0.251-0.009-0.503-0.018-0.736     c-0.018-0.476-0.061-0.925-0.14-1.347c-0.123,0.566-0.061,1.042-0.018,1.491c0.026,0.242,0.053,0.422,0.044,0.718     c-0.018,0.422-0.053,0.88-0.167,1.32c-0.044-0.287-0.088-0.664-0.123-1.113l-0.026-0.323c-0.009-0.063-0.018-0.126-0.026-0.189     c-0.018-0.135-0.035-0.269-0.053-0.413c-0.061-0.566-0.088-1.23-0.105-1.949c-0.044-1.446,0.035-3.107-0.026-4.795     c0.149-0.081,0.228-1.14,0.334-0.691c0.053,0.072,0.026,0.664-0.009,0.988c0.272-0.242,0.377,1.634,0.65-1.509     c0.395,1.149,0.992,3.538,1.132,3.466c0,0.916-0.026,2.02-0.079,3.071c-0.026,0.53-0.07,1.051-0.105,1.527     c-0.026,0.242-0.053,0.485-0.079,0.7c-0.035,0.35-0.061,0.7-0.105,0.979l-0.079-0.18c-0.132,1.266-0.219,3.197-0.316,4.849     c-0.105,1.652-0.228,3.044-0.474,3.421c-0.018,0.368-0.026,0.889-0.044,1.41c-0.009,0.26-0.018,0.512-0.018,0.745     c0,0.108-0.009,0.224-0.009,0.323c-0.026,0.072,0.079,0.027,0.114,0.036c0.053,0,0.105-0.009,0.158-0.009     c0.386-0.027,0.588-0.063,0.465-0.117c-0.07-0.027-0.211-0.054-0.465-0.09c0.009-0.269,0.105-0.718,0.176-1.257l-0.044,0.826     l-0.009,0.207c0,0.027-0.009,0.072,0,0.099h5.662c-0.781,0.359,0.395,0.647,0.957,0.88c0.527,0.233,0.465,0.44-3.459,0.611h7.4     c-0.07,0.027-0.114,0.054-0.202,0.072c-0.263,0.027-0.474,0.063-0.597,0.126c-0.887-0.045-1.44-0.027-1.536-0.18     c-1.387,0.225-1.176,0.413-0.009,0.566c0.579,0.072,1.387,0.135,2.317,0.189c0.65,0.036,1.369,0.072,2.107,0.117l0.597-0.431     c2.116,0.314,3.371,0.727,6.198,0.602l6.637-1.5c0.641-0.018,1.29-0.045,1.94-0.063c0.851,0.278,3.757,0.144,2.607,0.629     c0.29,0.216-0.685,0.296-1.949,0.171c-0.193-0.054,0.123-0.081-0.079-0.144c-0.369,0.26-0.527,0.584,1.01,0.916     c-1.571-0.09-1.782-0.153-2.879,0.018l1.589,0.099c-2.361,0.045-5.969,0.602-5.934,0.979c0.737-0.521,2.239,0.036,3.503,0.162     c-0.974,0.09-3.046,0.341-1.466,0.44c0.571-0.207,4.881-0.422,1.835-0.7c1.29-0.117,3.037-0.35,4.503-0.162     c-1.729,0.224-0.597,0.44-1.089,0.79c1.545-0.287,1.501-0.673,1.747-0.844c0.658,0.081,1.247,0.171,1.808,0.269     c-0.737,0.557,0.035,1.212,0.035,1.904c0.29,0.198,5.179,0.216,5.355-0.35c-2.3-0.341,3.143-0.548-1.097-0.647     c-0.035-0.036-0.044-0.072-0.035-0.117c1.405,0.215,2.932,0.323,5.039,0.207c0.65-0.063-3.002,0.108-2.528-0.242     c0.07-0.009,0.14-0.018,0.211-0.027c0.053,0.018,0.123,0.036,0.211,0.063c0.193-0.063,0.369-0.108,0.535-0.144     c1.203-0.09,2.107,0.045,2.958,0.207c-1.185,0.18-1.369,0.404-2.537,0.673c-0.263,0.593,3.187,0.341,4.609,0.656     c-0.097-0.045-0.158-0.09-0.105-0.126l2.318,0.099c-2.203-0.198,0.298-0.656,1.475-0.727c0.86-0.027,2.555-0.09,2.326,0.099     l-1.29,0.162c1.668,0.18,3.669-0.539,5.434-0.207c0.097,0.144-0.571,0.224-0.667,0.314c1.966-0.476,3.871-0.485,6.786-0.844     l-1.685,0.673c1.677-0.548,4.907-0.638,7.953-0.521c0.105,0.108,0.456,0.216,1.352,0.296c0.097-0.072,0.316-0.135,0.588-0.198     c0.413,0.027,0.808,0.054,1.194,0.09c0.018,0,0.026,0.009,0.044,0.018c0.939-0.054,1.773,0.009,2.537,0.099     c-0.035,0.063-0.114,0.117-0.281,0.18c0.202-0.054,0.465-0.099,0.737-0.126c0.799,0.099,1.519,0.215,2.177,0.233     c-0.219-0.144-0.228-0.242-0.114-0.314c2.3,0.027,5.223,0.233,7.251-0.063l1.326-0.036l0.746,0.009     c0.14,0.09-0.035,0.198-1.018,0.341c1.132-0.117,3.933-0.036,3.661-0.296l7.269,0.099c0.228,0.045,0.456,0.09,0.623,0.153     c0.246-0.045,0.29-0.09,0.255-0.135l31.682,0.44c-1.563-0.09-2.906-0.314-4.521-0.431c2.432-0.539-2.642-0.144-1.923-0.673     c1.089-0.18,2.677-0.099,3.626,0.054c0.36-0.269-0.992-0.53-0.825-0.862c-3.994-0.404-4.626,0.898-8.524,0.638     c0.158-0.323,1.369-0.593-1.185-0.593l0.281-0.027c-1.097,0.063-1.791,0.009-2.3-0.054c4.609-0.09,6.909,0.054,12.588-0.251     l0.711-0.557l0.211-0.171c0.009,0.009,0.018,0.018,0.026,0.018c-0.053,0.045-0.123,0.09-0.237,0.153     c0.132,0,0.237-0.009,0.36-0.018c0.009,0.027,0.009,0.045,0.009,0.063c3.371,0.233,7.234,0.108,10.069-0.314     c-3.652,0.189,1.247-0.503-2.361-0.557c0.615-0.099,1.624-0.162,2.774-0.198c-0.202,0.135-0.465,0.278-0.904,0.422     c0.764-0.099,0.983-0.287,1.422-0.431c0.729-0.018,1.501-0.018,2.256-0.009c-0.018,0-0.035,0.009-0.061,0.009     c-0.167,0.018-0.263,0.036-0.325,0.063c-0.386,0.072-0.843,0.144-0.931,0.215c0.325-0.072,0.615-0.126,0.878-0.162     c-0.009,0.233,2.502,0.647-1.334,0.44c0.658,0.557,2.353-0.063,4.477,0.045c-1.089,0.18-3.503,0.485-3.283,0.539     c1.545-0.296,3.116-0.224,6.716-0.063c3.143,0.162,6.364,0.377,7.918,0.323c-0.009-0.449-0.044-0.817-0.097-1.087     c-0.035-0.305-0.07-0.629-0.105-0.952c0.281-0.063,0.342-0.108,0.255-0.135l-0.255,0.09c-0.009-0.045-0.009-0.09-0.018-0.135     c0.132,0.018,0.228,0.027,0.272,0.045l0.395-0.144c0.026-0.018,0.088,0,0.079-0.045L185.689,354.616z M124.529,231.69     c0.29,0.036,0.615,0.036,0.931,0.036c0.018,0.009,0.035,0.009,0.053,0.009c-0.5,0.054-0.922,0.108-1.308,0.171     C124.011,231.852,124.038,231.789,124.529,231.69z M33.645,267.232c-0.097-0.575-0.123-1.293,0.018-2.46     c0.009,0.054,0.009,0.099,0.018,0.144C33.654,265.697,33.645,266.469,33.645,267.232z M34.488,259.788     c-0.105-0.871-0.246-0.027-0.36,0.18c0.158,1.751,0.097,3.825,0.342,4.903l-0.088,2.766c-0.14-0.018-0.377-0.413-0.535-1.293     c0.07-0.548,0.097-2.757,0.377-0.862c-0.377-3.161-0.404-6.412-0.386-9.366c0.026-2.73,0.079-5.208-0.061-7.121     c-0.228,1.06-0.474-1.679-0.571-1.787c0-1.087,0.281-0.736,0.334,0.144c0.14-2.092,0.465-2.586,0.825-2.227     C33.864,251.392,35.234,254.517,34.488,259.788z M35.594,240.176c-0.097-0.395-0.158-0.97-0.255-1.554     c0.088-0.018,0.176-0.045,0.255-0.063V240.176z M35.594,238.084c-0.36-0.036-0.632-0.054-0.852-0.018     c0.026,0.296,0.079,0.611,0.132,1.006c-0.018-0.314-0.009-0.611,0-0.889c0.255,0.009,0.509,0.018,0.72,0.009v0.287     c-0.114,0.027-0.228,0.045-0.334,0.081c0.132,0.718,0.246,1.437,0.246,2.056l-0.193-0.35l0.246,2.954     c0.018,0.036,0.026,0.063,0.035,0.09v7.597l-0.105,0.44c-0.061-0.225-0.123-0.395-0.211-0.467     c0.018,0.233,0.009,0.772-0.018,1.383l-0.097,0.413l-0.421-4.544c0.088-0.682,0.193-1.257,0.202-1.976v-0.009     c0-0.512-0.035-1.06-0.176-1.796c-0.184-0.754-0.237-0.629-0.439-0.673c-0.351-1.5-0.79-3.511-1.361-6.546l0.097,0.224     l-0.061-0.952l2.59-0.117V238.084z M54.942,233.127c-1.396,0.323-1.852,0.072-3.195,0.081c-0.211-0.584,1.782-0.341,3.108-0.557     h0.149L54.942,233.127z M83.226,231.744c-0.29,0.081-0.509,0.135-0.746,0.18C82.462,231.798,82.77,231.762,83.226,231.744z      M68.162,233.675c0,0.009,0.009,0.027,0.009,0.036c-0.149,0-0.281,0.009-0.43,0.009     C67.881,233.702,68.022,233.693,68.162,233.675z M70.172,233.693c0.395,0.081,0.773,0.162,0.465,0.26     c0.325-0.081,0.492-0.189,0.457-0.278c1.247-0.027,2.519-0.027,3.775-0.036c-1.492,0.108-3.415,0.171-4.231,0.314     c-0.685-0.072-1.369-0.063-2.037-0.027l-0.869-0.099C68.505,233.764,69.33,233.72,70.172,233.693z M67.706,233.971     c-1.299,0.09-2.44,0.189-3.213-0.072l0.307-0.036C65.502,233.917,66.635,233.944,67.706,233.971z M57.084,233.576     c-0.474-0.036-0.922-0.045-1.343-0.045c-0.211-0.099,0.281-0.224,0.053-0.44c1.071-0.198,3.09-0.656,4.389-0.611     c-0.606,0.063-1.141,0.144-1.563,0.26l0.843,0.135c0.702-0.144,2.098-0.126,2.651,0.036c-0.614,0.027-0.746,0.09-0.685,0.162     C59.445,232.938,57.242,233.324,57.084,233.576z M61.42,233.666l0.246-0.458C62.044,233.369,62.579,233.558,61.42,233.666z      M61.315,233.845l0.026-0.036l3.055-0.476c0.079,0.153,1.08,0.126,2.037,0.126l0.851,0.269c-1.159,0.018-2.23,0-3.169,0.018     c0.061,0.045,0.307,0.081,0.658,0.108L61.315,233.845z M65.028,357.283c-0.316,0.099-0.535,0.207-0.702,0.323     c-0.377-0.072-0.72-0.153-1.01-0.233c0.623-0.072,1.317-0.117,2.037-0.153C65.248,357.238,65.134,357.256,65.028,357.283z      M71.208,358.172c-0.676-0.018-1.343-0.045-2.002-0.081c0.693-0.18,1.826-0.296,2.958-0.216     C72.086,358.055,71.516,358.109,71.208,358.172z M72.455,358.199c0.439-0.063,0.615-0.072,0.492-0.251l1.756,0.278     C73.965,358.226,73.21,358.217,72.455,358.199z M72.938,357.929c-0.035-0.036-0.07-0.081-0.123-0.135     c0.342-0.054,0.623-0.108,0.878-0.162l1.369,0.323L72.938,357.929z M78.495,358.674l-0.5-0.359     c0.974-0.081,3.345-0.144,4.512-0.171c0.088,0.063,0.456,0.153,0.86,0.251C81.611,358.522,79.917,358.71,78.495,358.674z      M87.756,358.818c1.027-0.207,1.87-0.494,3.204-0.665c0.395,0.045,1.036,0.054,2.081,0     C92.329,358.71,89.74,358.872,87.756,358.818z M89.792,357.211c0.088,0.009,0.158,0.009,0.228,0.018     c0.105,0.018,0.228,0.045,0.36,0.063c0.386,0.126,0.018,0.377,0,0.584c-0.351-0.009-0.737-0.009-1.211-0.018     C91.487,357.57,89.661,357.588,89.792,357.211z M93.541,357.552c-3.046,0.09-3.257-0.027-2.695-0.207     c1.001,0.099,2.247,0.108,2.73,0.153L93.541,357.552z M92.013,357.049c0.342-0.081,0.615-0.162,0.694-0.233l0.149,0.009     C92.742,356.95,92.426,357.013,92.013,357.049z M102.583,358.648c-0.14,0.018-0.272,0.045-0.404,0.063l0.307,0.009     c-0.018,0.045,0.018,0.099,0.14,0.171c-0.263-0.054-0.527-0.099-0.553-0.162c0.035,0,0.07-0.009,0.105-0.018h-0.097     c0.018-0.018,0.044-0.036,0.123-0.063c0.176-0.018,0.342-0.027,0.509-0.036C102.671,358.621,102.618,358.63,102.583,358.648z      M102.653,357.66c-0.097-0.162-0.895-0.233-1.984-0.26c1.563-0.117,2.897-0.341,3.608-0.602c-2.546,0-3.152,0.422-5.065,0.575     c-0.939,0-1.958,0.009-2.888,0.009c-0.799-0.081-1.247-0.153-1.466-0.216c1.08-0.323,2.73-0.467,4.442-0.575     c-0.957,0.009-2.432,0.009-3.801,0.018c-0.114-0.072-0.377-0.153-0.86-0.251l-2.677,0.296c-1.308,0.081-2.072,0.251-2.783,0.404     c-0.562,0.009-0.983,0.063-1.097,0.198c-0.053,0-0.097,0.009-0.149,0.018c0.053-0.009,0.088-0.009,0.14-0.009     c-0.035,0.036-0.044,0.09-0.009,0.153c-0.219-0.045-0.43-0.081-0.632-0.108c-2.914-0.485-4.038-0.233-7.541-0.79     c-0.895,0.233,0.483,0.269,1.545,0.323c-1.905-0.063-2.019,0.647-4.503,0.171c-1.211-0.108-0.474,0.449,1.545,0.53     c-1.387-0.036-2.739,0-4.205-0.036c0.992-0.251,1.431-0.503,2.519-0.754c-0.79,0.072-1.852,0.09-3.029,0.099     c0.615-0.081,1.141-0.171,1.536-0.305c-0.816-0.242-2.967,0.494-4.021-0.189l-1.132,0.413c-1.308,0.117-4.31,0.224-4.565-0.216     c3.564-0.251,4.503-0.62,6.312-0.952c0.018-0.099,0.342-0.135,0.86-0.153c0.018,0,0.018,0,0.026,0     c1.053-0.018,2.783,0.063,3.766-0.027c1.255,0.117,0.386,0.35,0.246,0.44c4.275,0.629,7.269-0.727,11.781-0.278     c0.018,0.099,0.272,0.189,0.632,0.26c-3.819,0.135-8.717-0.332-8.682,0.602c1.176-0.072,3.09-0.072,4.819-0.368v0.853     c2.555-0.081,0.298-0.656,3.915-0.718l-1.062-0.027c0.597-0.072,1.308-0.126,2.081-0.162c0.72,0.099,1.282,0.18,0.746,0.269     c2.23,0.126,3.617-0.171,5.039-0.404c0.369-0.009,0.729-0.009,1.08-0.018c0.334,0.081,0.904,0.108,1.431,0.144     c0.272,0.081,0.781,0.144,1.106,0.242c-0.018,0-0.035,0.009-0.053,0.018l0.079-0.018c0.219,0.072,0.351,0.162,0.246,0.287     c2.028-0.126,4.029-0.242,5.135-0.647c1.203,0.018,2.291,0.063,2.59,0.278c1.826-0.09,0.518-0.593,3.046-0.359     c-0.123,0.09,0.079,0.144-0.448,0.117c0.263,0.054,0.632,0.09,1.036,0.117C108.552,356.636,105.813,357.229,102.653,357.66z      M112.977,355.711c-0.044-0.009-0.07-0.009-0.114-0.009c0.035-0.126,0.755-0.278,1.791-0.332     C114.091,355.478,113.53,355.594,112.977,355.711z M116.269,231.771c-1.457,0.099-3.116,0.099-4.723-0.117     c1.984-0.027,1.475-0.422,4.872-0.207C114.943,231.645,115.891,231.654,116.269,231.771z M150.988,234.061     c0.219,0.072,0.553,0.153,0.825,0.224c-0.465,0.027-0.966,0.036-1.615,0.036c-0.061-0.018-0.123-0.045-0.184-0.063     C150.285,234.187,150.61,234.124,150.988,234.061z M145.659,234.806c-0.132,0.072-0.325,0.108,0.14,0.117     c1.308,0,2.318-0.117,3.213-0.26c1.159,0.126,2.405,0.18,2.923,0.422l-2.519,0.368l-0.895-0.386l-1.448,0.44     c0.255,0.027,0.571,0.063,0.904,0.108h-3.064l-2.73-0.314C142.832,235.156,144.351,234.968,145.659,234.806z M150.759,355.397     c-0.167,0.126-0.483,0.189-0.878,0.225c-1.106-0.162-1.949-0.386-2.23-0.611l0.957-0.117     C149.987,354.921,148.617,355.514,150.759,355.397z M144.404,235.614h-5.706C140.199,235.569,142.797,235.56,144.404,235.614z      M128.339,357.615c-0.342-0.018-0.764-0.027-1.299-0.027c0.535-0.018,1.053-0.072,1.519-0.135     C128.304,357.507,128.26,357.561,128.339,357.615z M137.407,357.256c-2.23,0.045,1.352-0.638-2.054-0.521     c-0.922,0.368-3.125,0.09-3.792,0.332c0.088-0.171,0.132-0.359-1.624-0.35c-0.114,0.099,0.053,0.386-1.326,0.404     c-0.957-0.736,3.529-0.216,1.914-0.862c-3.924,0.054-2.502,0.682-3.09,0.979c0.132-0.018,0.342,0.009,0.737,0.018     c-0.035,0.233-1.615,0.072-1.519,0.332c-0.641,0-1.44,0-2.467,0.027l2.958-0.512c-2.203-0.26-2.713,0.332-4.302,0.242     c0.097-0.072-0.123-0.332,0.658-0.449l-0.816,0.081l3.775-1.015c1.536-0.207,3.064-0.44,4.802-0.629     c4.345-0.009,9.569,0.242,13.51,0.036c-0.281,0.458,1.08,0.934-2.397,1.176l-3.696-0.072L137.407,357.256z M141.129,357.678     l0.035-0.216c0.263-0.009,0.535-0.018,0.799-0.018C141.726,357.498,141.454,357.57,141.129,357.678z M143.403,357.426     c-0.044-0.009-0.097-0.018-0.149-0.027c0.176-0.009,0.342-0.009,0.509-0.018C143.658,357.39,143.526,357.408,143.403,357.426z      M147.959,356.843l0.65-0.081c-1.993-0.135-4.547-0.045-6.084,0.305c-0.623-0.242,0.088-0.341,1.018-0.404     c0.079,0.027,0.176,0.045,0.298,0.072c0.044-0.036,0.105-0.063,0.167-0.09c1.334-0.063,2.748-0.081,1.378-0.341     c0.07-0.009,0.14-0.018,0.211-0.018c0.711,0.027,1.492,0,2.291-0.063c1.413,0.027,2.993,0.099,4.433,0.099     C150.698,356.474,149.46,356.87,147.959,356.843z M152.761,356.699l1.949,0.036C153.946,356.789,153.226,356.816,152.761,356.699     z M154.604,356.304c-0.219-0.027-0.421-0.027-0.632-0.027c0.413-0.027,0.808-0.063,1.15-0.126     c1.633,0.09,1.203,0.207,0.606,0.305C155.772,356.349,155.561,356.268,154.604,356.304z M155.544,356.645     c0.044-0.027,0.088-0.063,0.123-0.099l0.597-0.189c0.369,0.036,0.658,0.072,0.887,0.108     C156.72,356.501,156.149,356.582,155.544,356.645z M182.555,236.764c-0.026,0-0.053,0.009-0.079,0.009     c-0.018-0.251-0.044-0.494-0.053-0.745c0.351,0,0.632,0.009,0.86,0.045c-0.079,0.718-0.202,1.356-0.316,2.532     C182.573,239.278,182.625,237.85,182.555,236.764z M182.941,241.837c-0.009,0.395-0.018,0.889-0.035,1.437l-0.263-3.349     c0.035-0.225,0.07-0.395,0.114-0.458L182.941,241.837z M182.494,237.015c-0.009-0.063-0.009-0.126-0.018-0.18h0.009     C182.485,236.889,182.494,236.952,182.494,237.015z M182.415,235.893c0.053,0,0.105,0,0.167,0.009     c-0.009,0.027-0.07,0.045-0.167,0.063V235.893z M181.317,235.839c0.193,0,0.395,0.009,0.615,0.018     c0,0.054,0.009,0.117,0.009,0.171c-0.053,0-0.097,0.009-0.14,0.009h0.14c0.009,0.305,0,0.575-0.018,0.781     c-0.114,0.009-0.219,0.027-0.325,0.054c-0.044-0.135-0.079-0.287-0.114-0.485l0.061,0.485c-0.07,0.018-0.149,0.027-0.211,0.036     c0.07,0,0.149-0.009,0.219-0.009l0.035,0.26c-0.088-0.009-0.176-0.018-0.272-0.018V235.839z M181.923,236.863     c-0.018,0.153-0.044,0.26-0.07,0.323c-0.053-0.009-0.097-0.009-0.149-0.018c-0.035-0.054-0.07-0.153-0.105-0.278     C181.704,236.88,181.809,236.871,181.923,236.863z M182.222,268.373c0.07-0.323,0.132-0.53,0.167-0.557     c-0.097-0.368,0.061-2.999,0.272-4.059l-0.255-0.772c-0.211-3.053-0.43-7.346-0.878-10.937c-0.018-0.368-0.053-0.682-0.114-0.889     c-0.035-0.207-0.061-0.422-0.097-0.62v-4.023c0.018-0.117,0.035-0.225,0.044-0.341v-0.009c0.053-0.494,0.061-1.087-0.009-1.832     c-0.009-0.081-0.018-0.144-0.035-0.198v-6.861c0.105,0.018,0.202,0.027,0.29,0.027l0.272,1.931     c0.132,0.943,0.281,2.083,0.386,2.73l-0.14-3.412c0.088,0.126,0.158,0.35,0.211,0.638l-0.061,3.502     c0.176,0.808,0.211-0.198,0.263-1.302c0,0.153,0.009,0.287,0.018,0.395c0.035,0.97,0.088,1.949,0.334,2.451     c-0.009,0.171-0.009,0.35-0.018,0.53c-0.018,0.53-0.035,1.087-0.061,1.67c-0.026,0.53-0.053,1.078-0.079,1.616     c-0.14,2.182-0.36,4.328-0.746,5.397c-0.351,2.784,0.246,1.58,0.518,2.299c0.334,1.697-0.237,3.242-0.132,4.894     c0.377-0.036,0.281,1.913,0.737,2.003l-0.193,2.694c0.632,1.536,0.237-3.233,0.571-3.933c0.658-1.419,0.132,1.994,0.527,1.078     c0.009-2.074-0.307-2.236-0.369-3.251c-0.009-1.185,0.176-1.814,0.413-1.769c-0.386,3.314,0.421,1.832,0.228,4.526l-0.149,0.081     c0.456,0.09,0.035,3.933,0.219,5.388c-0.623,2.936-0.632-2.416-0.773-2.326l0.026,3.61c-0.263-1.58-0.606,0-0.825-2.119v0.359     c-0.044-0.44-0.123-0.673-0.325-0.763C182.459,267.295,182.617,269.675,182.222,268.373z M183.126,282.723l0.149-0.629     C183.275,282.597,183.214,282.732,183.126,282.723z" />
			<path style="fill:#212123;" d="M161.827,359.565l-2.225-0.03C160.291,359.575,161.009,359.595,161.827,359.565z" />
			<path style="fill:#212123;" d="M180.965,357.987c0.573-0.002,1.129-0.004,1.709-0.006     C181.882,357.968,181.374,357.974,180.965,357.987z" />
			<path style="fill:#212123;" d="M186.451,343.581c-0.043,2.622-0.096,5.881-0.139,8.54c-0.024,2.727,0.014,4.963,0.234,5.888     c-0.068-0.14-0.145-0.15-0.205,0.321c-0.05-0.013-0.185-0.026-0.342-0.037l-3.146,0.493l3.646,0.225     c-1.602,0.245-5.615,0.29-9.472,0.229c-0.962-0.022-1.912-0.044-2.814-0.065c-0.553-0.022-0.978-0.048-1.412-0.08     c-0.841-0.062-1.495-0.142-1.801-0.23c1.932-0.063,2.416-0.263,3.089-0.393c0.479-0.063,1.202-0.106,2.259-0.104     c1.083,0.002,2.586,0.049,4.942,0.172c-0.524-0.174-2.276-0.492-0.326-0.553c-1.291-0.002-2.565-0.003-3.828-0.005     c-1.164-0.01-2.317-0.02-3.464-0.03c-1.518-0.018-3.019-0.035-4.527-0.052c-3.016-0.027-6.062-0.007-9.33,0.223     c5.13,0.61-3.373,0.391-1.769,1.095l2.799-0.183l-0.24,0.179l3.411-0.008c-0.695-0.323-1.221-0.351-1.064-0.677     c4.55,0.197,1.43,0.411,4.763,0.875l5.089,0.017l-0.413,0.092c0.429-0.001,0.618-0.039,0.766-0.09l14.338,0.113l0.003-15.36     C187.257,340.978,186.913,345.941,186.451,343.581z" />
			<path style="fill:#212123;" d="M186.293,310.651l0.058,0.051C186.32,310.585,186.296,310.548,186.293,310.651z" />
			<path style="fill:#212123;" d="M186.531,313.523l-0.303-0.704l0.639,3.144l-0.074-4.908l-0.442-0.354     C186.465,311.135,186.7,312.855,186.531,313.523z" />
			<path style="fill:#212123;" d="M186.315,318.606c-0.249-2.326,0.552-1.23,0-2.83c-0.373,0.054-0.144,2.921-0.073,3.58     l1.018,0.262C187.063,317.083,186.546,317.223,186.315,318.606z" />
			<polygon style="fill:#212123;" points="186.989,338.318 186.776,337.604 186.714,339.36    " />
			<path style="fill:#212123;" d="M186.413,336.385l0.363,1.219l0.062-1.743C186.679,335.982,186.523,336.101,186.413,336.385z" />
			<path style="fill:#212123;" d="M186.992,331.289c0.04-0.738,0.069-1.554,0.084-2.547L186.992,331.289z" />
			<path style="fill:#212123;" d="M186.858,333.282l0.068-0.059l0.066-1.934C186.944,332.001,186.901,332.641,186.858,333.282z" />
			<path style="fill:#212123;" d="M186.838,335.862c0.364-0.282,0.745-0.613,0.646-3.134l-0.558,0.495L186.838,335.862z" />
			<path style="fill:#212123;" d="M187.196,324.067c0.23,0.041,0.091-1.284,0.022-1.95     C187.2,322.658,187.125,323.419,187.196,324.067z" />
			<path style="fill:#212123;" d="M185.767,274.129l0.156-1.178C185.823,273.369,185.773,273.583,185.767,274.129z" />
		</g>
		</g></g></svg>